<svg width="20" height="20" viewBox="0 0 20 20" fill="none" xmlns="http://www.w3.org/2000/svg">
<path d="M16.3726 2H13.4315C13.4315 1.46957 13.2249 0.960859 12.8572 0.585786C12.4894 0.210714 11.9907 0 11.4707 0H8.52949C8.00946 0 7.51073 0.210714 7.14301 0.585786C6.77529 0.960859 6.56871 1.46957 6.56871 2H3.62753C3.1075 2 2.60877 2.21071 2.24105 2.58579C1.87333 2.96086 1.66675 3.46957 1.66675 4V18C1.66675 18.5304 1.87333 19.0391 2.24105 19.4142C2.60877 19.7893 3.1075 20 3.62753 20H16.3726C16.8927 20 17.3914 19.7893 17.7591 19.4142C18.1268 19.0391 18.3334 18.5304 18.3334 18V4C18.3334 3.46957 18.1268 2.96086 17.7591 2.58579C17.3914 2.21071 16.8927 2 16.3726 2ZM11.4707 2V5H8.52949V2H11.4707ZM13.4315 15H6.56871C6.30869 15 6.05933 14.8946 5.87547 14.7071C5.69161 14.5196 5.58832 14.2652 5.58832 14C5.58832 13.7348 5.69161 13.4804 5.87547 13.2929C6.05933 13.1054 6.30869 13 6.56871 13H13.4315C13.6915 13 13.9408 13.1054 14.1247 13.2929C14.3086 13.4804 14.4118 13.7348 14.4118 14C14.4118 14.2652 14.3086 14.5196 14.1247 14.7071C13.9408 14.8946 13.6915 15 13.4315 15ZM13.4315 11H6.56871C6.30869 11 6.05933 10.8946 5.87547 10.7071C5.69161 10.5196 5.58832 10.2652 5.58832 10C5.58832 9.73478 5.69161 9.48043 5.87547 9.29289C6.05933 9.10536 6.30869 9 6.56871 9H13.4315C13.6915 9 13.9408 9.10536 14.1247 9.29289C14.3086 9.48043 14.4118 9.73478 14.4118 10C14.4118 10.2652 14.3086 10.5196 14.1247 10.7071C13.9408 10.8946 13.6915 11 13.4315 11Z" fill="#1F2A37"/>
</svg>
