<svg xmlns="http://www.w3.org/2000/svg" xmlns:xlink="http://www.w3.org/1999/xlink" id="Capa_1" x="0px" y="0px" width="540.51px" height="78.3px" viewBox="0 0 540.51 78.3" xml:space="preserve"><g>	<g>		<g>			<path fill="#1B1B1B" d="M47.43,35.58c1.59-3.23,2.49-6.86,2.49-10.69c0-13.37-10.88-24.25-24.25-24.25h-9.58v0.02h-3.5v76.92h7v0    h11.32c13.37,0,24.25-10.88,24.25-24.25C55.16,46.48,52.3,40.1,47.43,35.58z M42.92,24.89c0,9.51-7.74,17.25-17.25,17.25h-6.08    v-6.05H25c6.17,0,11.2-5.02,11.2-11.2c0-6.17-5.02-11.2-11.2-11.2h-5.41V7.65h6.08C35.19,7.65,42.92,15.38,42.92,24.89z     M19.59,20.69H25c2.31,0,4.2,1.88,4.2,4.2c0,2.31-1.88,4.2-4.2,4.2h-5.41V20.69z M19.59,49.14h10.64c2.31,0,4.2,1.88,4.2,4.2    c0,2.31-1.88,4.2-4.2,4.2H19.59V49.14z M30.92,70.59H19.59v-6.05h10.64c6.17,0,11.2-5.02,11.2-11.2c0-3.01-1.2-5.74-3.14-7.75    c1.88-1.15,3.59-2.56,5.09-4.16c3.02,3.16,4.77,7.39,4.77,11.91C48.16,62.85,40.42,70.59,30.92,70.59z"/>			<rect y="0.67" fill="#1B1B1B" width="7" height="76.92"/>		</g>		<g>			<rect x="60.26" y="0.67" fill="#1B1B1B" width="7" height="76.92"/>			<polygon fill="#1B1B1B" points="104.83,64.99 104.83,57.99 79.85,57.99 79.85,0.67 72.85,0.67 72.85,77.59 79.85,77.59     79.85,77.58 104.83,77.58 104.83,70.58 79.85,70.58 79.85,64.99    "/>		</g>		<path fill="#1B1B1B" d="M144.21,78.26c-21.58,0-39.13-17.55-39.13-39.13C105.08,17.55,122.63,0,144.21,0   c21.58,0,39.13,17.55,39.13,39.13C183.34,60.7,165.79,78.26,144.21,78.26z M144.21,7c-17.72,0-32.13,14.41-32.13,32.13   c0,17.72,14.41,32.13,32.13,32.13s32.13-14.41,32.13-32.13C176.34,21.41,161.92,7,144.21,7z M144.21,64.56   c-14.02,0-25.43-11.41-25.43-25.43c0-14.02,11.41-25.43,25.43-25.43s25.43,11.41,25.43,25.43   C169.64,53.15,158.23,64.56,144.21,64.56z M144.21,20.69c-10.16,0-18.43,8.27-18.43,18.43s8.27,18.43,18.43,18.43   c10.17,0,18.43-8.27,18.43-18.43S154.37,20.69,144.21,20.69z"/>		<path fill="#1B1B1B" d="M264.14,50.33c-4.83,16.13-19.8,27.92-37.49,27.92c-21.58,0-39.13-17.55-39.13-39.13   C187.53,17.55,205.08,0,226.65,0c17.68,0,32.65,11.79,37.49,27.92h-7.38C252.21,15.72,240.43,7,226.65,7   c-17.72,0-32.13,14.41-32.13,32.13c0,17.72,14.41,32.13,32.13,32.13c13.78,0,25.55-8.72,30.11-20.92H264.14z M226.65,13.69   c-14.02,0-25.43,11.41-25.43,25.43c0,14.02,11.41,25.43,25.43,25.43c10,0,18.67-5.81,22.83-14.23h-8.22   c-3.37,4.39-8.66,7.23-14.6,7.23c-10.16,0-18.43-8.27-18.43-18.43s8.27-18.43,18.43-18.43c5.95,0,11.23,2.84,14.6,7.23h8.22   C245.33,19.5,236.66,13.69,226.65,13.69z"/>		<path fill="#1B1B1B" d="M380.21,37.4c4.39-3.85,7.17-9.48,7.17-15.76c0-11.57-9.41-20.99-20.99-20.99h-16.07h-3.72h-3.28v76.94   h3.28h3.72h21.47c11.57,0,20.99-9.41,20.99-20.99C392.79,48.03,387.61,40.65,380.21,37.4z M366.4,7.65   c7.71,0,13.99,6.27,13.99,13.99s-6.27,13.98-13.99,13.98h-16.07V7.65H366.4z M371.8,70.59h-21.47V42.62h21.47   c7.71,0,13.99,6.27,13.99,13.99S379.51,70.59,371.8,70.59z"/>		<path fill="#1B1B1B" d="M465.41,50.39c-4.62,12.47-16.56,20.92-30.12,20.92c-17.72,0-32.13-14.41-32.13-32.13   s14.41-32.13,32.13-32.13c13.42,0,25.3,8.33,30,20.63h7.41c-5.01-16.35-20.17-27.63-37.41-27.63c-21.58,0-39.13,17.55-39.13,39.13   s17.55,39.13,39.13,39.13c17.38,0,32.58-11.4,37.5-27.92H465.41z"/>		<path fill="#1B1B1B" d="M332.88,56.85v-7h-10.33V0.65h-7.7l-4.89,7.79V8.4l-7,11.15v0.03l-19.01,30.27h-0.02h-6.58l30.89-49.2   h-8.26l-30.9,49.2h-0.06v7h33.94v5.59h-33.94v7h33.94v8h7V21.6l5.59-8.91v64.75h7v-8h10.33v-7h-10.33v-5.59H332.88z M302.95,49.85   h-10.74l10.74-17.11V49.85z"/>		<polygon fill="#1B1B1B" points="533.51,0.65 533.51,67.07 488.04,0.65 481.11,0.65 481.11,0.65 479.81,0.65 479.81,77.53    486.81,77.53 486.81,11.25 532.19,77.53 540.51,77.53 540.51,77.3 540.51,0.65   "/>	</g></g></svg>